<svg xmlns="http://www.w3.org/2000/svg" viewBox="0 0 64 64"><style>.gotchi-secondary{fill:#cfeef4;}
        .white{fill:#ffffff;}
        .gotchi-primary{fill:#b6509e;}</style><g class="Hands_down_open"><g class="gotchi-secondary"><path d="M14,39h1v1h-1z"/><path d="M49,39h1v1h-1z"/><path d="M12,40h2v1h-2z"/><path d="M50,40h2v1h-2z"/><path d="M8,41h4v1h-4z"/><path d="M52,41h4v1h-4z"/></g><g class="gotchi-primary"><path d="M14,33h1v1h-1z"/><path d="M49,33h1v1h-1z"/><path d="M13,34h1v1h-1z"/><path d="M50,34h1v1h-1z"/><path d="M12,35h1v1h-1z"/><path d="M51,35h1v1h-1z"/><path d="M10,36h2v1h-2z"/><path d="M52,36h2v1h-2z"/><path d="M8,37h2v1h-2z"/><path d="M54,37h2v1h-2z"/><path d="M7,38h1v4h-1z"/><path d="M56,38h1v4h-1z"/><path d="M14,40h1v1h-1z"/><path d="M49,40h1v1h-1z"/><path d="M12,41h2v1h-2z"/><path d="M50,41h2v1h-2z"/><path d="M8,42h4v1h-4z"/><path d="M52,42h4v1h-4z"/></g><g class="white"><path d="M14,34h1v1h-1z M13,35h2v1h-2z M12,36h3v1h-3z M10,37h5v1h-5z M8,38h7v1h-7z M8,39h6v1h-6z M8,40h4v1h-4z"/><path d="M49,34h1v1h-1z M49,35h2v1h-2z M49,36h3v1h-3z M49,37h5v1h-5z M49,38h7v1h-7z M50,39h6v1h-6z M52,40h4v1h-4z"/></g></g></svg>